<svg width="900" height="1200" viewBox="0 0 900 1200" fill="none" xmlns="http://www.w3.org/2000/svg">
  <rect width="900" height="1200" rx="24" fill="#FAF7EF"/>

  <!-- paper texture -->
  <g opacity="0.18">
    <circle cx="80" cy="120" r="2" fill="#B8A98F"/>
    <circle cx="230" cy="90" r="1.8" fill="#B8A98F"/>
    <circle cx="520" cy="160" r="2" fill="#B8A98F"/>
    <circle cx="790" cy="110" r="1.8" fill="#B8A98F"/>
    <circle cx="160" cy="850" r="2" fill="#B8A98F"/>
    <circle cx="650" cy="960" r="2" fill="#B8A98F"/>
    <circle cx="820" cy="720" r="1.8" fill="#B8A98F"/>
  </g>

  <!-- page border -->
  <rect x="45" y="45" width="810" height="1110" rx="18" fill="#FFFDF8" stroke="#2C2824" stroke-width="5"/>

  <!-- top wide panel -->
  <rect x="80" y="82" width="740" height="300" rx="14" fill="#F4F0E8" stroke="#2C2824" stroke-width="5"/>

  <!-- speed lines -->
  <g opacity="0.45" stroke="#2C2824" stroke-width="3">
    <path d="M560 90L820 250"/>
    <path d="M590 86L820 205"/>
    <path d="M620 86L820 165"/>
    <path d="M650 90L820 125"/>
    <path d="M520 100L805 310"/>
    <path d="M500 125L760 350"/>
  </g>

  <!-- character silhouette -->
  <g>
    <circle cx="245" cy="205" r="62" fill="#2C2824"/>
    <path d="M170 345C190 280 220 248 245 248C270 248 304 282 322 345H170Z" fill="#2C2824"/>
    <path d="M198 164L232 92L252 168Z" fill="#2C2824"/>
    <path d="M254 164L294 100L285 178Z" fill="#2C2824"/>
    <circle cx="225" cy="200" r="7" fill="#FFFDF8"/>
    <circle cx="270" cy="200" r="7" fill="#FFFDF8"/>
    <path d="M230 231C242 244 262 244 274 231" stroke="#FFFDF8" stroke-width="5" stroke-linecap="round"/>
  </g>

  <!-- speech bubble -->
  <g>
    <path d="M455 130C520 82 660 85 725 145C785 200 760 280 690 306C622 331 505 319 452 263C412 220 411 163 455 130Z" fill="#FFFDF8" stroke="#2C2824" stroke-width="5"/>
    <path d="M489 294L438 345L462 270Z" fill="#FFFDF8" stroke="#2C2824" stroke-width="5" stroke-linejoin="round"/>
    <line x1="500" y1="170" x2="700" y2="170" stroke="#C9BCA8" stroke-width="10" stroke-linecap="round"/>
    <line x1="505" y1="215" x2="665" y2="215" stroke="#C9BCA8" stroke-width="10" stroke-linecap="round"/>
    <line x1="520" y1="260" x2="630" y2="260" stroke="#C9BCA8" stroke-width="10" stroke-linecap="round"/>
  </g>

  <!-- middle panels -->
  <rect x="80" y="420" width="350" height="300" rx="14" fill="#FFFDF8" stroke="#2C2824" stroke-width="5"/>
  <rect x="470" y="420" width="350" height="300" rx="14" fill="#F4F0E8" stroke="#2C2824" stroke-width="5"/>

  <!-- left middle background -->
  <g opacity="0.45" stroke="#2C2824" stroke-width="4">
    <path d="M105 690C165 610 250 575 405 600"/>
    <path d="M120 650C190 590 275 560 405 575"/>
    <path d="M150 705C230 660 320 645 410 670"/>
  </g>

  <!-- right middle effect -->
  <g>
    <path d="M545 560C590 490 705 470 765 545" stroke="#2C2824" stroke-width="10" stroke-linecap="round"/>
    <path d="M555 600C610 550 700 540 755 595" stroke="#2C2824" stroke-width="6" stroke-linecap="round" opacity="0.6"/>
    <circle cx="650" cy="610" r="38" fill="#FFFDF8" stroke="#2C2824" stroke-width="5"/>
    <path d="M630 610H670" stroke="#2C2824" stroke-width="5" stroke-linecap="round"/>
    <path d="M650 590V630" stroke="#2C2824" stroke-width="5" stroke-linecap="round"/>
  </g>

  <!-- bottom panel -->
  <rect x="80" y="760" width="740" height="340" rx="14" fill="#F4F0E8" stroke="#2C2824" stroke-width="5"/>

  <!-- bottom landscape lines -->
  <g stroke="#2C2824" stroke-linecap="round">
    <path d="M125 1000C230 920 365 905 470 990" stroke-width="12" opacity="0.55"/>
    <path d="M505 995C600 920 735 930 790 1010" stroke-width="12" opacity="0.55"/>
    <path d="M130 875H380" stroke-width="6" opacity="0.28"/>
    <path d="M520 875H780" stroke-width="6" opacity="0.28"/>
    <path d="M130 915H315" stroke-width="5" opacity="0.22"/>
    <path d="M555 915H735" stroke-width="5" opacity="0.22"/>
  </g>

  <!-- footer label -->
  <rect x="300" y="1125" width="300" height="42" rx="21" fill="#2C2824"/>
  <text x="450" y="1153" text-anchor="middle" fill="#FFFDF8" font-size="20" font-family="Arial, Helvetica, sans-serif" font-weight="700">
    MangaFlow Draft Page
  </text>
</svg>